<svg xmlns="http://www.w3.org/2000/svg" xmlns:xlink="http://www.w3.org/1999/xlink" width="655.5" height="841.90002" viewBox="0 0 655.5 841.90002">
  <defs>
    <style>
      .a {
        fill: none;
      }

      .ah, .al, .b, .g, .h {
        fill: #fff;
      }

      .c {
        clip-path: url(#a);
      }

      .d {
        fill: #333;
      }

      .e, .i {
        fill: #575756;
      }

      .f {
        fill: #d73534;
      }

      .al, .g, .i {
        stroke: #fff;
      }

      .ah, .g, .h, .i {
        stroke-width: 0.05px;
      }

      .ah, .al, .h {
        stroke-linecap: round;
      }

      .h {
        stroke: url(#b);
      }

      .i {
        opacity: 0.56;
      }

      .ai, .i {
        isolation: isolate;
      }

      .j {
        fill: #35343a;
      }

      .k {
        fill: url(#c);
      }

      .l {
        fill: url(#d);
      }

      .m {
        fill: url(#e);
      }

      .n {
        fill: url(#f);
      }

      .o {
        fill: url(#g);
      }

      .p {
        fill: url(#h);
      }

      .q {
        fill: url(#i);
      }

      .r {
        fill: url(#j);
      }

      .s {
        fill: url(#k);
      }

      .t {
        fill: url(#l);
      }

      .u {
        fill: url(#m);
      }

      .v {
        fill: url(#n);
      }

      .w {
        fill: url(#o);
      }

      .x {
        fill: url(#p);
      }

      .y {
        fill: url(#q);
      }

      .z {
        fill: url(#r);
      }

      .aa {
        fill: url(#s);
      }

      .ab {
        fill: url(#t);
      }

      .ac {
        fill: url(#u);
      }

      .ad {
        fill: url(#v);
      }

      .ae {
        fill: url(#w);
      }

      .af {
        fill: url(#x);
      }

      .ag {
        fill: url(#y);
      }

      .ah {
        stroke: url(#z);
      }

      .aj {
        clip-path: url(#aa);
      }

      .ak {
        fill: #999696;
      }

      .ak, .am {
        fill-rule: evenodd;
      }

      .al {
        stroke-linejoin: round;
        stroke-width: 13.8697px;
      }

      .am {
        fill: #d93636;
      }
    </style>
    <clipPath id="a">
      <path class="a" d="M323.2,78.1A293.55027,293.55027,0,0,0,115.8,579L278.7,744.9c11.5,11.4,26.9,35.7,43.1,36.1,17,.3,33.4-23.9,45.5-35.8L530.5,579A293.55041,293.55041,0,0,0,323.2,78.1Z"/>
    </clipPath>
    <linearGradient id="b" x1="-351.26469" y1="43.13404" x2="-140.24049" y2="43.13404" gradientTransform="matrix(2.7952, 0.4715, -0.4715, 2.7952, 1043.46693, 303.10666)" gradientUnits="userSpaceOnUse">
      <stop offset="0" stop-color="#fff"/>
      <stop offset="1"/>
    </linearGradient>
    <linearGradient id="c" x1="-312.7634" y1="87.09093" x2="-310.87129" y2="87.09093" gradientTransform="translate(1218.74399 71.42397) rotate(2.09103) scale(3.29429)" gradientUnits="userSpaceOnUse">
      <stop offset="0" stop-color="#262626"/>
      <stop offset="1"/>
    </linearGradient>
    <linearGradient id="d" x1="-309.10003" y1="87.10969" x2="-307.20792" y2="87.10969" xlink:href="#c"/>
    <linearGradient id="e" x1="-312.76304" y1="89.94688" x2="-310.87092" y2="89.94688" xlink:href="#c"/>
    <linearGradient id="f" x1="-309.1004" y1="89.93421" x2="-307.20829" y2="89.93421" xlink:href="#c"/>
    <linearGradient id="g" x1="-297.53789" y1="81.03765" x2="-294.42819" y2="81.03765" gradientTransform="translate(1215.65344 58.48678) rotate(1.19274) scale(3.29431)" xlink:href="#c"/>
    <linearGradient id="h" x1="-297.53789" y1="84.19581" x2="-294.42819" y2="84.19581" gradientTransform="translate(1215.65344 58.48678) rotate(1.19274) scale(3.29431)" xlink:href="#c"/>
    <linearGradient id="i" x1="-274.43744" y1="91.72742" x2="-271.58496" y2="91.72742" gradientTransform="translate(1201.53672 33.89829) rotate(-0.41097) scale(3.29428)" xlink:href="#c"/>
    <linearGradient id="j" x1="-268.90744" y1="91.73669" x2="-266.05496" y2="91.73669" gradientTransform="translate(1201.53672 33.89829) rotate(-0.41097) scale(3.29428)" xlink:href="#c"/>
    <linearGradient id="k" x1="-274.43658" y1="94.58099" x2="-271.58409" y2="94.58099" gradientTransform="translate(1201.53672 33.89829) rotate(-0.41097) scale(3.29428)" xlink:href="#c"/>
    <linearGradient id="l" x1="-268.90744" y1="94.55991" x2="-266.05496" y2="94.55991" gradientTransform="translate(1201.53672 33.89829) rotate(-0.41097) scale(3.29428)" xlink:href="#c"/>
    <linearGradient id="m" x1="-242.2723" y1="83.22078" x2="-241.40209" y2="83.22078" gradientTransform="translate(1226.84829 126.78755) rotate(3.52415) scale(3.29433)" xlink:href="#c"/>
    <linearGradient id="n" x1="-240.5862" y1="83.20719" x2="-239.71599" y2="83.20719" gradientTransform="translate(1226.84829 126.78755) rotate(3.52415) scale(3.29433)" xlink:href="#c"/>
    <linearGradient id="o" x1="-242.2723" y1="85.54696" x2="-241.40209" y2="85.54696" gradientTransform="translate(1226.84829 126.78755) rotate(3.52415) scale(3.29433)" xlink:href="#c"/>
    <linearGradient id="p" x1="-240.5862" y1="85.56553" x2="-239.71599" y2="85.56553" gradientTransform="translate(1226.84829 126.78755) rotate(3.52415) scale(3.29433)" xlink:href="#c"/>
    <linearGradient id="q" x1="-227.73926" y1="92.87316" x2="-223.95096" y2="92.87316" gradientTransform="matrix(3.2943, 0.01705, -0.01705, 3.2943, 1205.00838, 75.51719)" xlink:href="#c"/>
    <linearGradient id="r" x1="-222.38364" y1="92.87587" x2="-218.59534" y2="92.87587" gradientTransform="matrix(3.2943, 0.01705, -0.01705, 3.2943, 1205.00838, 75.51719)" xlink:href="#c"/>
    <linearGradient id="s" x1="-256.89324" y1="85.36233" x2="-254.98754" y2="85.36233" gradientTransform="matrix(3.293, 0.09362, -0.09362, 3.293, 1217.91906, 85.17595)" xlink:href="#c"/>
    <linearGradient id="t" x1="-253.06384" y1="85.19295" x2="-251.15814" y2="85.19295" gradientTransform="matrix(3.293, 0.09362, -0.09362, 3.293, 1217.91906, 85.17595)" xlink:href="#c"/>
    <linearGradient id="u" x1="-255.31144" y1="76.91423" x2="-252.46884" y2="76.91423" gradientTransform="matrix(3.293, 0.09362, -0.09362, 3.293, 1217.91906, 85.17595)" xlink:href="#c"/>
    <linearGradient id="v" x1="-227.73564" y1="96.03005" x2="-223.94734" y2="96.03005" gradientTransform="matrix(3.2943, 0.01705, -0.01705, 3.2943, 1205.00838, 75.51719)" xlink:href="#c"/>
    <linearGradient id="w" x1="-222.38035" y1="96.03275" x2="-218.59205" y2="96.03275" gradientTransform="matrix(3.2943, 0.01705, -0.01705, 3.2943, 1205.00838, 75.51719)" xlink:href="#c"/>
    <linearGradient id="x" x1="-279.81971" y1="91.74959" x2="-276.96723" y2="91.74959" gradientTransform="translate(1201.53672 33.89829) rotate(-0.41097) scale(3.29428)" xlink:href="#c"/>
    <linearGradient id="y" x1="-279.82244" y1="94.57281" x2="-276.96996" y2="94.57281" gradientTransform="translate(1201.53672 33.89829) rotate(-0.41097) scale(3.29428)" xlink:href="#c"/>
    <linearGradient id="z" x1="24.72541" y1="479.17941" x2="595.75446" y2="479.17941" gradientTransform="matrix(0.9861, 0.1663, 0.1663, -0.9861, -59.0651, 827.06551)" xlink:href="#b"/>
    <clipPath id="aa">
      <path class="a" d="M1177.56425,44.02053a293.55027,293.55027,0,0,0-207.4,500.9l162.9,165.9c11.5,11.4,26.9,35.7,43.1,36.1,17,.3,33.4-23.9,45.5-35.8l163.2-166.2a293.55041,293.55041,0,0,0-207.3-500.9Z"/>
    </clipPath>
  </defs>
  <title>HOT-Summit-2019-LogoArtboard 1</title>
  <path class="b" d="M322.6,66.4a304.25017,304.25017,0,0,0-215,519.2l168.9,172c11.9,11.8,27.9,37,44.7,37.4,17.6.3,34.6-24.8,47.2-37.1L537.6,585.6a304.25021,304.25021,0,0,0-215-519.2Z"/>
  <g class="c">
    <path class="d" d="M617.6,447.8,45.3,450.6a273.43552,273.43552,0,0,0,33,61.5l9.1,12.7L576,522.5a278.88909,278.88909,0,0,0,41.6-74.7Z"/>
    <path class="d" d="M600.8,478.4c-.2-.1-.4,0-.6.2h.9c-.1-.1-.2-.1-.30005-.2Zm-.6.2L59.5,481.8a301.78611,301.78611,0,0,0,18.7,30.3l12.6,17.8c3,.4,35.6.4,41.2,1.8,19.3,8.9,33.7,19.5,50.1,29.4l21.5,37.4c.6,5.2,10.7,4.4,11.2-.2,18.6-37.3,46.6-64.8,111-69.5,50,14.7,63.3,43.1,84.8,68.3-.3,2.6,7.9,4.7,9.8-.1,23.6-53.7,88.7-62,131-70.8l18.3.8a2.63449,2.63449,0,0,0,2.1.3c4.1-5,8.1-10.2,11.8-15.4C590.6,498.4,597.2,480.6,600.2,478.6Z"/>
    <path class="e" d="M323.2,78.1A293.55027,293.55027,0,0,0,115.8,579L278.7,744.9c11.5,11.4,26.9,35.7,43.1,36.1,17,.3,33.4-23.9,45.5-35.8L530.5,579A293.55041,293.55041,0,0,0,323.2,78.1Z"/>
    <path class="f" d="M45.8,509,278.7,744.9c11.5,11.4,26.9,35.7,43.1,36.1,17,.3,33.4-23.9,45.5-35.8L598.1,521.4"/>
    <path class="g" d="M622.1,434.4c-18.6-.4-76.2.2-108.9,1.5-50,1.2-84.1-4.9-116.8-4.1-169.6,5.7-179.9-4.1-245.5-1.1-25.2.9-96.1.3-122.4,0,1,3.5,2.1,6.9,3.1,9.9.3.9,10.6,1.5,10.9,2.4.1.4.3.8.4,1.2l.6,1.5a6.11768,6.11768,0,0,0,.5,1.2l.6,1.5.9,2.4.6,1.5c.2.4.3.9.5,1.3.2.5.4,1,.6,1.4.2.5.4.9.6,1.4s.4.9.6,1.4h0c.3.8.7,1.6,1,2.4.2.5.4.9.6,1.4s.4,1,.6,1.4.4.9.6,1.3c.2.5.4.9.6,1.4.2.4.4.9.6,1.3h0c.4.8.7,1.6,1.1,2.4.2.4.4.9.6,1.3.2.5.5,1,.7,1.5l.6,1.2c.3.6.6,1.2.9,1.7a9.29185,9.29185,0,0,1,.5,1c.4.9.9,1.7,1.3,2.6.2.3.3.7.5,1q.45.9.9,1.8c.2.4.4.7.6,1.1.4.7.7,1.4,1.1,2.1l.3.6c.5.9,1,1.7,1.5,2.6.2.3.4.7.6,1,.3.6.7,1.2,1,1.8a4.05393,4.05393,0,0,1,.5.9,23.92261,23.92261,0,0,0,1.3,2.1l.3.6h0c.5.9,1,1.7,1.6,2.6a9.22488,9.22488,0,0,1,.5.8c.4.6.8,1.3,1.2,1.9l.6.9c.5.8,1,1.5,1.5,2.3a.51957.51957,0,0,1,.2.4h0c.6.9,1.2,1.7,1.7,2.6.2.2.3.5.5.7a24.2582,24.2582,0,0,0,1.4,2c.2.3.3.5.5.8.6.9,1.2,1.7,1.8,2.6l-9.6,17.4c12,4,65.8,2.4,89.8,22.2,13.3,9,22,43.1,23.5,45.5,5.3,11.7,16.1,10.3,35.4.7,8.4-37.7,41.6-57.2,68.1-62.9,20.3-4.4,52.1-1,61.6,3.3,33.6,15.2,48.4,36.2,52.1,45.8,6.5,14.6,7.8,15.2,13.3,17.4,10.4,4.2,26.9-.5,31.1-7.1,7.4-18,6.3-38.1,20.1-48.9,7.5-7.3-1.2-10.9,35.9-17.2,10.3-1.7,60.1,1.4,68.5,3.8.6-.7,1.3-1.4,1.9-2.2a5.49544,5.49544,0,0,0,.7-.9c.5-.6.9-1.1,1.4-1.7.6-.8,1.3-1.6,1.8-2.2h0a19.209,19.209,0,0,0,1.3-1.7c.2-.2.3-.4.5-.6h0l30.3-47.9c.1-.2.2-.3.2-.5q.3-.6.6-1.2c.7-1.4,1.3-2.8,2-4.2q.6-1.35,1.2-2.7c.4-1,.9-1.9,1.3-2.9.4-.8.7-1.7,1.1-2.5.7-1.6,1.3-3.1,2-4.7.1-.3.2-.5.3-.8a24.41205,24.41205,0,0,1,1-2.4c.6-1.5,1.2-3,1.7-4.5.2-.5.4-1.1.6-1.6.4-1.1.8-2.2,1.2-3.2.1-.2.1-.3.2-.5.7-2,1.3-4,2-5.9h0c.2-.69983.5-1.69983.8-2.69983Z"/>
    <path class="h" d="M287.8,144.5h0l.2.1a12.85012,12.85012,0,0,0-7.4.5,47.5986,47.5986,0,0,0-7.6,2.8,72.03422,72.03422,0,0,0-16.3,10.2c-9.9,8.2-20.2,19.3-30.9,31.6-21.4,24.6-37.8,45.9-59,66.3-10.9,9.5-14,14.1-28.8,32.2-3,3.7-17.4,10.4-21.8,17.2-1,1.4-1.9,2.5-2.9,4.1-.2.3-.4.8-.6,1.1-5.9,9.2-22.7,19.9-30,30.6-14.8,21.7-43,42.9-53.9,49a.09794.09794,0,0,0-.1.1c1,7.2,2.2,14.3,3.7,21.4,1.8.2,3.9.3,6.1.5,44.1,1,182.3-.6,223,2.9,54.5,4.7,111.1-1.3,159-1.9,65.3,1.5,134.2,1.5,192,3.3h.5c1.5-6.5,2.8-13.1,3.8-19.7-.4-1.7-.8-3.9-1.4-6.4-1.2-5.1-9.9-10.3-12.6-16.1s-5.5-11.8-6.8-16.2c-6-20.3-17.5-40.2-30.9-53.3h0l-.2-.2-34.3-29.8c-1.4-1.5-4.8-6.2-8.5-11.6a202.7711,202.7711,0,0,0-13.4-17.9c-5.2-5.9-11.1-11.6-18.6-15.2a29.86786,29.86786,0,0,0-26.1.1l-.2.1-.3.2c-21.9,12-40.2,23.4-57,34.4-22-28.7-51.2-49.4-80.1-73.7h0l-.1-.1-.2-.1h-.1c-12.1-9.1-13.2-15.4-14.9-23.2-.8-3.7-1.5-8.4-4.5-13.1-2.3-3.7-5.5-5.4-8.7-6.9a42.6717,42.6717,0,0,0-9.8-3h0c-.09995-.3-.2-.3-.3-.3Zm2,19.6h.2c.2.1,0,.2.3.6a54.13789,54.13789,0,0,1,2,7c1.9,8.4,6.2,22,21.8,34h0c.1,0,.1.1.2.1l.1.1c31.5,26.4,61.6,47.6,82.3,77.2h0l5.5,7.9,8-5.4c18.2-12.2,38.5-24.8,62.9-38.2,3.7-1.8,5.3-1.6,8.9.1,3.4,1.6,7.9,5.4,12.1,10.3a200.66922,200.66922,0,0,1,12.1,16.2c3.7,5.4,6.9,10.4,10.7,14.3l.3.3,34.5,30c2.9,2.9,7.4,10.4,11.3,19.4a285.70886,285.70886,0,0,1,10.6,30c2.8,9.4,4.9,17.9,6.5,24.7l-7.2-1.8,2.7,2.7L90.1,391c2.4-3,4.7-5.9,7.1-9.4,6.7-9.9,13.3-21.8,19.7-33.3,5.3-9.6,10.2-18.3,15-26,2.1-3.3,4.4-6.6,6.1-9.2,4.3-5.6,8.2-9.5,8.6-9.6a40.68683,40.68683,0,0,0,22.1-17.2c4.1-6.4,6.5-11.8,11.2-15.9l.2-.2.2-.2h0c22.5-21.7,39.2-43.6,60.3-67.6,10.5-12,20.4-22.5,28.8-29.5,8.3-6.9,15.6-9.4,16.9-9.3a3.73014,3.73014,0,0,1,1.2.2h0c1.3.2,1.9.2,2.3.3ZM405.6,272h0a.21509.21509,0,0,1-.2.2v-.1Z"/>
    <path class="i" d="M58,479c.2.3.3.7.5,1q.45.9.9,1.8c.2.4.4.7.6,1.1.4.7.7,1.4,1.1,2.1l.3.6c.5.9,1,1.7,1.5,2.6.2.3.4.7.6,1,.3.6.7,1.2,1,1.8a4.05352,4.05352,0,0,1,.5.9,23.92261,23.92261,0,0,0,1.3,2.1l.3.6h0c.5.9,1,1.7,1.6,2.6a9.22242,9.22242,0,0,1,.5.8c.4.6.8,1.3,1.2,1.9l.6.9c.5.8,1,1.5,1.5,2.3a.51955.51955,0,0,1,.2.4h0c.6.9,1.2,1.7,1.7,2.6.2.2.3.5.5.7a24.2608,24.2608,0,0,0,1.4,2c.2.3.3.5.5.8.6.9,1.2,1.7,1.8,2.6l-9.6,17.4c12,4,65.8,2.4,89.8,22.2,13.3,9,22,43.1,23.5,45.5,5.3,11.7,16.1,10.3,35.4.7,8.4-37.7,41.6-57.2,68.1-62.9,20.3-4.4,52.1-1,61.6,3.3,33.6,15.2,48.4,36.2,52.1,45.8,6.5,14.6,7.8,15.2,13.3,17.4,10.4,4.2,26.9-.5,31.1-7.1,7.4-18,6.3-38.1,20.1-48.9,7.5-7.3-1.2-10.9,35.9-17.2,10.3-1.7,60.1,1.4,68.5,3.8.6-.7,1.3-1.4,1.9-2.2a5.49444,5.49444,0,0,0,.7-.9c.5-.6.9-1.1,1.4-1.7.6-.8,1.3-1.6,1.8-2.2h0a19.21,19.21,0,0,0,1.3-1.7c.2-.2.3-.4.5-.6h0"/>
    <path class="j" d="M289.2,153.4h0c-.7-.1-1.3-.2-2.1-.3-26.9-2.1-69.9,67.6-113.7,110.2C147.7,282,40.1,387.6,47.2,400.6l560.9,4c.7,1.1-30.4-73.7-49.8-92.9l-34.5-30.2c-10.6-11-30.7-55.3-55.3-43-24.8,13.8-45.5,26.7-64,39.3-21.7-31.2-44.5-51-76-77.6C300.6,178.9,309.3,156.7,289.2,153.4ZM58.2,512.1h-10l18.9,12.5,21.3,1.9.1.2c3.9.3,37.7.8,41.5,1.4a81.02748,81.02748,0,0,1,40.1,29.3c14.5,19.5,11.8,26.5,15.1,42.9.8,9.4,25.8,9.6,32-2.3,1-2,2-3.9,3.1-5.9,14.6-39.1,56.4-59.8,92.1-64.7,28.6-3.9,49.2,7.9,67.9,21.5,14.9,10.9,27,30.9,30.3,48.3,2.8,11.3,28.4,9.4,33.5-2.9,11-24.3,10.5-48.5,51.3-66.2,16.7-6,58.6-6,75.2-3.3l3,.5c.9-1.1,1.7-2.1,2.5-3.2.4-.5.7-.9,1.1-1.4.7-.9,1.3-1.7,2-2.6.5-.7,1.1-1.5,1.6-2.2s1.1-1.5,1.6-2.2a15.25154,15.25154,0,0,0,1.1-1.6h0c0-.1.1-.1.1-.2l1.5-2.1c.4-.6.9-1.2,1.3-1.9.5-.7.9-1.4,1.4-2.1q.3-.45.6-.9c.4-.6.8-1.2,1.1-1.7.4-.7.9-1.4,1.3-2.1.1-.2.3-.4.4-.6h0c1.3-2,2.6-4.1,3.8-6.1.1-.2.2-.3.3-.5,1.2-2.1,2.5-4.2,3.6-6.3,1.8-3.2,3.5-6.5,5.2-9.7a2.50568,2.50568,0,0,1,.4-.7c.9-1.8,1.8-3.7,2.7-5.5a9.145,9.145,0,0,1,.7-1.4c.8-1.6,1.5-3.2,2.2-4.8.3-.6.5-1.2.8-1.8.4-.9.8-1.9,1.2-2.8v-.1l1.5-3.6c.4-.9.7-1.8,1.1-2.7.5-1.2,1-2.5,1.4-3.7,0-.1.1-.2.1-.3.3-.7.6-1.5.9-2.3.1-.4.3-.8.4-1.2h0c-150.1,2.9-527.6-13.8-588.2-6.5,4.8,14.2,23.4,63.8,24.6,65.7"/>
    <path class="f" d="M186.6,288.6l-21,14-1.9,105.1,46.2,1.8,5.7-101.2-15-17.3Z"/>
    <path class="f" d="M237.9,262.7l-16,25.3-.2,119.2,32.1.8,6-123Z"/>
    <path class="f" d="M320.1,313.5l-33.2,2.2L268.3,332l.5,70.4,69.1.6,2.2-74.3Z"/>
    <path class="f" d="M485.3,357.7l-27.5,1.1-11.5,7-8,45.5,66-8.4L500,366Z"/>
    <path class="b" d="M404.7,277.8c12.3,15.9,22.1,25,21.7,25.3l12.1,10c18.3,9.3-20.2-33-13-51.1-7.8,3.6-16.2-7.6-20.8,15.8Z"/>
    <path class="k" d="M178.8,317.4l6.2.7-.2,5.8-5.9-.2Z"/>
    <path class="l" d="M190.8,317.9l6.2.7-.2,5.8-5.9-.2Z"/>
    <path class="m" d="M178.4,326.8l6.2.7-.2,5.8-5.9-.2Z"/>
    <path class="n" d="M190.5,327.2l6.2.7-.2,5.8-5.9-.2Z"/>
    <path class="o" d="M230.2,302.4l10.3-.2-.5,6-9.3-.2Z"/>
    <path class="p" d="M230,312.8l10.2-.2-.5,6-9.3-.2Z"/>
    <path class="q" d="M299.6,339.4l9.4.4v5.8l-8.9.1Z"/>
    <path class="r" d="M317.8,339.3l9.4.4v5.8l-8.9.1Z"/>
    <path class="s" d="M299.7,348.8l9.4.4V355l-8.9.1Z"/>
    <path class="t" d="M317.9,348.6l9.4.4v5.8l-8.9.1Z"/>
    <g>
      <path class="f" d="M418.2,329.6c-3.6-.2-7,4.9-7.6,9.3l-1.9.1-.8,66.1,15.1.9,4.2-67.5-1.8.1c-.7-4.3-3.90005-8.8-7.2-9Z"/>
      <path class="f" d="M418.3,319.6l-1.4,11.1,2.2.6-.3-10.6Z"/>
      <path class="u" d="M413.5,348.4l2.8.6-.3,5.5-2.7-.2Z"/>
      <path class="v" d="M419.1,348.7l2.8.6-.3,5.5-2.7-.2Z"/>
      <path class="w" d="M413,357.3l2.8.4-.2,3.2-2.7-.2Z"/>
      <path class="x" d="M418.5,357.7l2.8.4-.2,3.2-2.7-.2Z"/>
    </g>
    <path class="y" d="M453.2,374.4l12.5-.4-.5,7.3-11.4-.1Z"/>
    <path class="z" d="M470.8,374.5l12.5-.4-.5,7.3-11.4-.1Z"/>
    <g>
      <path class="f" d="M374.3,281l-2,22.2c-6.6,1.9-12.2,11.3-13.4,19.6h-3.4l-.3,88.2,34.9-4.1,4.1-84.7h-2.8c-1.3-8.4-7.8-17.6-14.6-19.2l-1.2-19.8Z"/>
      <path class="aa" d="M364.2,335l6.3-.2-.7,15.2-5.7-.2Z"/>
      <path class="ab" d="M376.8,334.8l6.3-.2-.7,15.2-5.7-.2Z"/>
      <path class="ac" d="M374.5,311.4c-2.1-.1-4,3.2-4.6,6.4l9.4.3C378.8,314.9,376.6,311.5,374.5,311.4Z"/>
    </g>
    <path class="ad" d="M453.2,384.8l12.5-.4-.5,7.3-11.4-.1Z"/>
    <path class="ae" d="M470.8,384.9l12.5-.4-.5,7.3-11.4-.1Z"/>
    <path class="af" d="M281.9,339.6l9.4.4v5.8l-8.9.1Z"/>
    <path class="ag" d="M282,348.9l9.4.4v5.8l-8.9.1Z"/>
    <path class="ah" d="M48.2,400.6c105.7,4.6,86.3-2.6,143.8.3,62.4,3.2,55.6.1,69.8,2.5s65.9-.6,100.5-.2c34.2.4,76-1.8,112.4-1,27.8.6,73.7,1.4,73.7,1.4l60.8,1-2.2,6.1-392.2,1.1L45.8,408Z"/>
    <rect class="a" x="218.89999" y="656.70001" width="210.39999" height="147"/>
    <g class="ai">
      <g class="ai">
        <path class="b" d="M254.72168,656.88281a.4355.4355,0,0,1,.32324-.13281h3.4961a.45428.45428,0,0,1,.45605.45508v25.6875a.4543.4543,0,0,1-.45605.457h-3.4961a.45348.45348,0,0,1-.45605-.457V672.13867a.16748.16748,0,0,0-.18994-.18945h-4.82618a.16728.16728,0,0,0-.18994.18945v10.75391a.45348.45348,0,0,1-.45605.457h-3.4961a.4543.4543,0,0,1-.456-.457v-25.6875a.45428.45428,0,0,1,.456-.45508h3.4961a.45346.45346,0,0,1,.45605.45508v10.7168a.16728.16728,0,0,0,.18994.18945h4.82618a.16748.16748,0,0,0,.18994-.18945v-10.7168A.43548.43548,0,0,1,254.72168,656.88281Z"/>
        <path class="b" d="M276.07764,660.416a.437.437,0,0,1-.32325.13281h-8.208a.16805.16805,0,0,0-.18994.18945v7.1836a.16728.16728,0,0,0,.18994.18945h4.86425a.45428.45428,0,0,1,.45606.45508v2.92578a.4543.4543,0,0,1-.45606.457h-4.86425a.16728.16728,0,0,0-.18994.18945v7.22071a.16728.16728,0,0,0,.18994.18945h8.208a.45348.45348,0,0,1,.45606.457v2.88672a.45348.45348,0,0,1-.45606.457H263.4043a.4543.4543,0,0,1-.45606-.457v-25.6875a.45428.45428,0,0,1,.45606-.45508h12.35009a.45346.45346,0,0,1,.45606.45508v2.88867A.43738.43738,0,0,1,276.07764,660.416Z"/>
        <path class="b" d="M279.61133,683.2168a.4415.4415,0,0,1-.1333-.32422v-25.6875a.45428.45428,0,0,1,.45605-.45508h3.4961a.45346.45346,0,0,1,.45605.45508v25.6875a.45348.45348,0,0,1-.45605.457h-3.4961A.44112.44112,0,0,1,279.61133,683.2168Z"/>
        <path class="b" d="M288.12305,683.2168a.4415.4415,0,0,1-.1333-.32422v-25.6875a.45428.45428,0,0,1,.45605-.45508h6.498a7.02745,7.02745,0,0,1,5.2251,1.97461,7.18,7.18,0,0,1,1.957,5.2832v12.084a7.17533,7.17533,0,0,1-1.957,5.28125,7.0211,7.0211,0,0,1-5.2251,1.97656h-6.498A.44112.44112,0,0,1,288.12305,683.2168Zm4.46484-3.668,2.28027-.03711a2.45013,2.45013,0,0,0,2.03272-1.00781,4.4346,4.4346,0,0,0,.81689-2.67969V664.27344a4.3299,4.3299,0,0,0-.77881-2.7168,2.52548,2.52548,0,0,0-2.10888-1.00781h-2.24219a.16806.16806,0,0,0-.18994.18945v18.6211A.16728.16728,0,0,0,292.58789,679.54883Z"/>
        <path class="b" d="M318.90283,660.416a.437.437,0,0,1-.32324.13281h-8.208a.16806.16806,0,0,0-.18994.18945v7.1836a.16728.16728,0,0,0,.18994.18945h4.86426a.45428.45428,0,0,1,.45605.45508v2.92578a.4543.4543,0,0,1-.45605.457h-4.86426a.16728.16728,0,0,0-.18994.18945v7.22071a.16728.16728,0,0,0,.18994.18945h8.208a.45348.45348,0,0,1,.45605.457v2.88672a.45348.45348,0,0,1-.45605.457h-12.3501a.4543.4543,0,0,1-.45605-.457v-25.6875a.45428.45428,0,0,1,.45605-.45508h12.3501a.45346.45346,0,0,1,.45605.45508v2.88867A.43738.43738,0,0,1,318.90283,660.416Z"/>
        <path class="b" d="M322.43652,683.2168a.44154.44154,0,0,1-.1333-.32422v-25.6875a.45428.45428,0,0,1,.45606-.45508h3.49609a.45348.45348,0,0,1,.45606.45508v22.1543a.16728.16728,0,0,0,.18994.18945h8.208a.45348.45348,0,0,1,.45605.457v2.88672a.45348.45348,0,0,1-.45605.457h-12.3501A.44113.44113,0,0,1,322.43652,683.2168Z"/>
        <path class="b" d="M350.51855,681.44922a7.44933,7.44933,0,0,1-5.30175,1.90039h-6.6875a.45348.45348,0,0,1-.45606-.457v-25.6875a.45346.45346,0,0,1,.45606-.45508h6.0039a8.22987,8.22987,0,0,1,5.66211,1.82227,6.74676,6.74676,0,0,1,2.05176,5.32031q0,3.91405-2.77344,5.58594c-.12793.07617-.15234.15234-.07617.22851a6.61079,6.61079,0,0,1,2.31738,2.54688,8.07755,8.07755,0,0,1,.83594,3.79882A7.0244,7.0244,0,0,1,350.51855,681.44922Zm-8.0371-20.71094v7.06836a.16832.16832,0,0,0,.18945.19141h1.93848a3.14271,3.14271,0,0,0,2.43164-.95117,3.836,3.836,0,0,0,.874-2.69727,4.10581,4.10581,0,0,0-.874-2.8125,3.08,3.08,0,0,0-2.43164-.98828H342.6709A.16771.16771,0,0,0,342.48145,660.73828Zm4.78808,17.709a4.61309,4.61309,0,0,0,.874-3.002,4.92934,4.92934,0,0,0-.874-3.09765,2.876,2.876,0,0,0-2.39453-1.1211h-2.2041a.16832.16832,0,0,0-.18945.19141v7.90234a.16832.16832,0,0,0,.18945.19141h2.2041A2.93523,2.93523,0,0,0,347.26953,678.44727Z"/>
        <path class="b" d="M368.60645,660.416a.43858.43858,0,0,1-.32325.13281h-8.208a.1684.1684,0,0,0-.19043.18945v7.1836a.16763.16763,0,0,0,.19043.18945h4.86425a.45512.45512,0,0,1,.45606.45508v2.92578a.43762.43762,0,0,1-.13379.32422.4424.4424,0,0,1-.32227.13281H360.0752a.16763.16763,0,0,0-.19043.18945v7.22071a.16763.16763,0,0,0,.19043.18945h8.208a.45348.45348,0,0,1,.45606.457v2.88672a.45348.45348,0,0,1-.45606.457H355.93262a.45512.45512,0,0,1-.45606-.457v-25.6875a.45512.45512,0,0,1,.45606-.45508H368.2832a.45346.45346,0,0,1,.45606.45508v2.88867A.43927.43927,0,0,1,368.60645,660.416Z"/>
        <path class="b" d="M382.03906,682.96875l-3.26855-10.94336c-.05078-.10156-.11328-.15234-.18946-.15234h-1.97656a.16771.16771,0,0,0-.18945.18945v10.83008a.45348.45348,0,0,1-.45606.457h-3.49609a.45348.45348,0,0,1-.45605-.457V657.168a.45348.45348,0,0,1,.45605-.457h7.14356a6.33519,6.33519,0,0,1,5.94726,3.70508,9.17578,9.17578,0,0,1,.85547,4.04687,8.64524,8.64524,0,0,1-.91211,4.08594,6.08793,6.08793,0,0,1-2.5459,2.60156q-.15234.03809-.11426.22852l3.72364,11.4375a.43419.43419,0,0,1,.03808.1914c0,.22657-.13965.3418-.418.3418H382.5332A.477.477,0,0,1,382.03906,682.96875Zm-5.624-22.26758v7.5625a.16694.16694,0,0,0,.18945.18945h2.31836a2.713,2.713,0,0,0,2.22266-1.06445,4.41349,4.41349,0,0,0,.85547-2.84961,4.63145,4.63145,0,0,0-.85547-2.94531,2.70217,2.70217,0,0,0-2.22266-1.082h-2.31836A.16694.16694,0,0,0,376.415,660.70117Z"/>
        <path class="b" d="M391.02637,681.77148a6.60373,6.60373,0,0,1-1.957-4.99609V663.32227a6.60672,6.60672,0,0,1,1.957-4.9961,7.16842,7.16842,0,0,1,5.18652-1.88086,7.30534,7.30534,0,0,1,5.22461,1.88086,6.59081,6.59081,0,0,1,1.99512,5.03516v1.48242a.45348.45348,0,0,1-.45606.45508h-3.49609a.45512.45512,0,0,1-.45606-.45508v-1.55859a3.1027,3.1027,0,0,0-.77832-2.20313,2.6468,2.6468,0,0,0-2.0332-.83594,2.58468,2.58468,0,0,0-2.01367.83594,3.14149,3.14149,0,0,0-.76074,2.20313V676.8125a3.14651,3.14651,0,0,0,.76074,2.20508,2.59123,2.59123,0,0,0,2.01367.83594,2.65361,2.65361,0,0,0,2.0332-.83594,3.10761,3.10761,0,0,0,.77832-2.20508V673.166a.16871.16871,0,0,0-.18945-.19141H396.5166a.45512.45512,0,0,1-.45605-.45508v-2.77344a.45514.45514,0,0,1,.45605-.457h6.46a.45351.45351,0,0,1,.45606.457v7.0293a6.5414,6.5414,0,0,1-1.99512,4.99609,7.30529,7.30529,0,0,1-5.22461,1.88086A7.16838,7.16838,0,0,1,391.02637,681.77148Z"/>
      </g>
      <g class="ai">
        <path class="b" d="M268.13184,717.96289a6.03731,6.03731,0,0,1-1.69092-4.46484V698.60156a5.81125,5.81125,0,0,1,6.15625-6.15625,6.10378,6.10378,0,0,1,4.48388,1.69141,5.99735,5.99735,0,0,1,1.71,4.46484v1.67188a.335.335,0,0,1-.37989.3789h-1.2539a.33491.33491,0,0,1-.38037-.3789V698.5625a4.34871,4.34871,0,0,0-1.13965-3.1543,4.51245,4.51245,0,0,0-6.08008,0,4.34694,4.34694,0,0,0-1.14014,3.1543v14.97266a4.34063,4.34063,0,0,0,1.14014,3.15429,4.51242,4.51242,0,0,0,6.08008,0,4.34239,4.34239,0,0,0,1.13965-3.15429v-5.35743a.13451.13451,0,0,0-.15186-.15234h-3.57178a.33629.33629,0,0,1-.38037-.38086v-1.02539a.33629.33629,0,0,1,.38037-.38086h5.35791a.33634.33634,0,0,1,.37989.38086v6.87891a6.00039,6.00039,0,0,1-1.71,4.46484,6.10249,6.10249,0,0,1-4.48388,1.68945A6.03641,6.03641,0,0,1,268.13184,717.96289Z"/>
        <path class="b" d="M295.0166,694.53516h-9.00586a.1343.1343,0,0,0-.15185.15234v10.29688a.1343.1343,0,0,0,.15185.15234h5.77588a.33668.33668,0,0,1,.38037.38086V706.543a.33668.33668,0,0,1-.38037.38086h-5.77588a.13371.13371,0,0,0-.15185.15039v10.33594a.1343.1343,0,0,0,.15185.15234h9.00586a.33668.33668,0,0,1,.38037.38086v1.02539a.33668.33668,0,0,1-.38037.38086h-10.792a.33614.33614,0,0,1-.37988-.38086V693.12891a.33553.33553,0,0,1,.37988-.37891h10.792a.33608.33608,0,0,1,.38037.37891v1.02539A.33668.33668,0,0,1,295.0166,694.53516Z"/>
        <path class="b" d="M310.33057,719.04492l-4.18018-12.12109a.15.15,0,0,0-.15185-.11524h-3.76221a.13432.13432,0,0,0-.15186.15235v12.00781a.33633.33633,0,0,1-.37988.38086H300.4502a.33614.33614,0,0,1-.37989-.38086v-25.916a.33554.33554,0,0,1,.37989-.3789h5.89013a5.30263,5.30263,0,0,1,4.29395,1.97461,7.85231,7.85231,0,0,1,1.63427,5.168,8.174,8.174,0,0,1-1.10205,4.37109,5.373,5.373,0,0,1-3.04,2.39453c-.127.05078-.165.11328-.11425.18945l4.332,12.16016.03808.15234c0,.17579-.11377.26563-.34179.26563h-1.2544A.44271.44271,0,0,1,310.33057,719.04492Zm-8.2461-24.39648v10.33594a.13431.13431,0,0,0,.15186.15234h3.876a3.63758,3.63758,0,0,0,3.002-1.44336,6.019,6.019,0,0,0,1.14013-3.83789,6.16231,6.16231,0,0,0-1.14013-3.89453,3.61831,3.61831,0,0,0-3.002-1.46289h-3.876A.13371.13371,0,0,0,302.08447,694.64844Z"/>
        <path class="b" d="M316.59961,718.96875V693.12891A.33569.33569,0,0,1,316.98,692.75h1.292a.41913.41913,0,0,1,.418.30273l4.55957,11.09571a.12342.12342,0,0,0,.228,0l4.56006-11.09571a.41835.41835,0,0,1,.418-.30273h1.29248a.33612.33612,0,0,1,.37988.37891v25.83984a.33672.33672,0,0,1-.37988.38086h-1.2544a.33614.33614,0,0,1-.37988-.38086V697.87891c0-.07618-.02539-.11329-.07617-.11329a.12091.12091,0,0,0-.11377.07618l-4.104,9.80273a.397.397,0,0,1-.37988.30469.41748.41748,0,0,1-.418-.30469l-4.21826-9.80273a.12184.12184,0,0,0-.11377-.07618c-.05127,0-.07617.03711-.07617.11329v21.08984a.33633.33633,0,0,1-.37988.38086H316.98A.33629.33629,0,0,1,316.59961,718.96875Z"/>
        <path class="b" d="M347.0752,719.00781l-1.02637-4.97851a.12613.12613,0,0,0-.05664-.11328.23365.23365,0,0,0-.13281-.03907h-7.41016a.23363.23363,0,0,0-.13281.03907.12611.12611,0,0,0-.05664.11328l-1.06446,4.97851a.36368.36368,0,0,1-.418.3418h-1.2539a.34874.34874,0,0,1-.28516-.11523.3432.3432,0,0,1-.05664-.30274L340.957,693.0918a.3906.3906,0,0,1,.418-.3418h1.52051a.36306.36306,0,0,1,.418.3418l5.81347,25.83984v.07617a.30236.30236,0,0,1-.34179.3418h-1.292A.39209.39209,0,0,1,347.0752,719.00781Zm-8.39747-6.85937a.12713.12713,0,0,0,.11329.05664h6.68847c.0752,0,.11426-.05078.11426-.15235L342.25,696.207c-.02637-.07617-.05176-.11328-.07617-.11328-.02539,0-.05176.03711-.07617.11328l-3.41993,15.8457C338.65234,712.07812,338.65234,712.10938,338.67773,712.14844Z"/>
        <path class="b" d="M353.57227,718.96875V693.12891a.33573.33573,0,0,1,.37988-.37891h1.33008a.41835.41835,0,0,1,.418.30273l8.24609,20.86329c.02441.07421.06348.10742.11426.09375.05078-.01172.07617-.05665.07617-.13282v-20.748a.335.335,0,0,1,.3789-.37891h1.2168a.33573.33573,0,0,1,.37988.37891v25.83984a.33633.33633,0,0,1-.37988.38086h-1.33008a.41785.41785,0,0,1-.418-.30469l-8.2461-20.90039c-.02539-.07617-.06348-.10742-.11328-.09375-.05176.01172-.07617.05664-.07617.13281l.03711,20.78516a.336.336,0,0,1-.37891.38086h-1.25488A.33633.33633,0,0,1,353.57227,718.96875Z"/>
        <path class="b" d="M375.916,718.96875v-11.7793A.30638.30638,0,0,0,375.87891,707l-5.24414-13.79492-.03907-.15235c0-.20117.11524-.30273.34278-.30273h1.3291a.44484.44484,0,0,1,.457.30273l4.10351,11.62891a.12108.12108,0,0,0,.11426.07617.12294.12294,0,0,0,.11426-.07617l4.06543-11.62891a.44364.44364,0,0,1,.45605-.30273h1.33008a.31142.31142,0,0,1,.30469.45508L377.96875,707a.2961.2961,0,0,0-.03906.18945v11.7793a.336.336,0,0,1-.37891.38086h-1.2539A.33663.33663,0,0,1,375.916,718.96875Z"/>
      </g>
    </g>
  </g>
  <rect class="a" x="152.7" y="458.10001" width="402.50002" height="75.99997"/>
  <g class="ai">
    <path class="b" d="M159.24756,505.419a12.64816,12.64816,0,0,1-3.67188-9.39649v-2.01562a.86026.86026,0,0,1,.86426-.86426h6.48a.86024.86024,0,0,1,.86377.86426v1.584a6.85076,6.85076,0,0,0,1.43994,4.53613,4.49971,4.49971,0,0,0,3.6001,1.72754,4.696,4.696,0,0,0,3.67188-1.62011,6.20953,6.20953,0,0,0,1.44043-4.28418,6.418,6.418,0,0,0-.792-3.20411,10.12984,10.12984,0,0,0-2.19629-2.62793q-1.404-1.22314-4.57177-3.52734a64.08088,64.08088,0,0,1-5.79639-4.6084,17.35219,17.35219,0,0,1-3.67188-4.86035,14.09376,14.09376,0,0,1-1.47607-6.58789,12.69764,12.69764,0,0,1,3.6001-9.50391,12.90368,12.90368,0,0,1,9.43213-3.52734,13.06957,13.06957,0,0,1,9.71972,3.708,13.35685,13.35685,0,0,1,3.67237,9.82715v1.72851a.86026.86026,0,0,1-.86426.86426h-6.55176a.86026.86026,0,0,1-.86426-.86426v-1.87207a6.82165,6.82165,0,0,0-1.4038-4.5,4.58432,4.58432,0,0,0-3.708-1.69238,4.41164,4.41164,0,0,0-3.45606,1.54883,6.24371,6.24371,0,0,0-1.36816,4.2832,6.698,6.698,0,0,0,1.47607,4.39258,34.49259,34.49259,0,0,0,5.7959,4.96777q4.39087,3.312,6.624,5.32813a15.16563,15.16563,0,0,1,3.45606,4.46386,12.91124,12.91124,0,0,1,1.22412,5.832,13.28571,13.28571,0,0,1-3.708,9.82813,14.46465,14.46465,0,0,1-19.26025.07227Z"/>
    <path class="b" d="M193.627,505.05859q-3.709-3.99609-3.708-10.54785V458.94238a.86026.86026,0,0,1,.86376-.86426h6.624a.86028.86028,0,0,1,.86426.86426V495.375a7.25535,7.25535,0,0,0,1.43994,4.67969,4.94513,4.94513,0,0,0,7.63183,0,7.26374,7.26374,0,0,0,1.43994-4.67969V458.94238a.86028.86028,0,0,1,.86426-.86426h6.624a.86027.86027,0,0,1,.86377.86426v35.56836q0,6.55226-3.74415,10.54785a14.21627,14.21627,0,0,1-19.76367,0Z"/>
    <path class="b" d="M226.6748,508.22656a.82826.82826,0,0,1-.25195-.6123V458.94238a.86026.86026,0,0,1,.86377-.86426h6.55225a1.02115,1.02115,0,0,1,1.00781.64844l6.91211,15.55176q.21606.43214.43213,0l6.83984-15.55176a1.019,1.019,0,0,1,1.00781-.64844h6.624a.86028.86028,0,0,1,.86426.86426v48.67188a.86028.86028,0,0,1-.86426.86426h-6.624a.86027.86027,0,0,1-.86377-.86426v-31.3916c0-.19141-.04834-.28809-.144-.28809-.09668,0-.19238.07227-.28808.21582l-6.1919,12.60059q-.28857.64746-.57617.64746-.21606,0-.57568-.64746l-6.19239-12.74414c-.09668-.14454-.19238-.20411-.28759-.18067-.09717.02539-.144.13281-.144.32422v31.46387a.86026.86026,0,0,1-.86426.86426h-6.624A.82718.82718,0,0,1,226.6748,508.22656Z"/>
    <path class="b" d="M267.21045,508.22656a.82822.82822,0,0,1-.25195-.6123V458.94238a.86026.86026,0,0,1,.86377-.86426h6.55224a1.02114,1.02114,0,0,1,1.00781.64844l6.91211,15.55176q.21608.43214.43213,0l6.83985-15.55176a1.019,1.019,0,0,1,1.00781-.64844h6.624a.86026.86026,0,0,1,.86426.86426v48.67188a.86026.86026,0,0,1-.86426.86426h-6.624a.86026.86026,0,0,1-.86377-.86426v-31.3916c0-.19141-.04834-.28809-.144-.28809-.09668,0-.19239.07227-.28809.21582L283.08643,488.751q-.28858.64746-.57618.64746-.21606,0-.57568-.64746l-6.19238-12.74414c-.09668-.14454-.19239-.20411-.2876-.18067-.09717.02539-.144.13281-.144.32422v31.46387a.86028.86028,0,0,1-.86426.86426h-6.624A.82715.82715,0,0,1,267.21045,508.22656Z"/>
    <path class="b" d="M307.89014,508.22656a.82823.82823,0,0,1-.252-.6123V458.94238a.86027.86027,0,0,1,.86377-.86426h6.624a.86108.86108,0,0,1,.86425.86426v48.67188a.86108.86108,0,0,1-.86425.86426h-6.624A.82714.82714,0,0,1,307.89014,508.22656Z"/>
    <path class="b" d="M352.1709,458.33008a.84049.84049,0,0,1,.25195.6123v5.47168a.86024.86024,0,0,1-.86426.86426h-9.14453a.31782.31782,0,0,0-.35937.36035v41.97559a.86028.86028,0,0,1-.86426.86426h-6.624a.86026.86026,0,0,1-.86426-.86426V465.63867a.31821.31821,0,0,0-.35938-.36035h-8.64062a.86024.86024,0,0,1-.86377-.86426v-5.47168a.86026.86026,0,0,1,.86377-.86426h26.85644A.84054.84054,0,0,1,352.1709,458.33008Z"/>
    <path class="b" d="M375.1377,508.22656a.832.832,0,0,1-.252-.6123v-5.75977a1.62489,1.62489,0,0,1,.36035-1.08008l2.80762-3.81543q2.8081-3.74413,5.50879-7.63281,2.6997-3.88768,4.57129-6.9834,4.1748-6.91258,4.17578-11.44824a7.33082,7.33082,0,0,0-1.25977-4.53613,4.00027,4.00027,0,0,0-3.34765-1.65625,3.934,3.934,0,0,0-3.3125,1.62012,6.61206,6.61206,0,0,0-1.15137,4.28418v2.80761a.86024.86024,0,0,1-.86426.86426h-6.76757a.86024.86024,0,0,1-.86426-.86426v-3.0957a13.333,13.333,0,0,1,3.92383-9.28809,12.93124,12.93124,0,0,1,9.39648-3.52734,12.02827,12.02827,0,0,1,9.17969,3.708,13.65424,13.65424,0,0,1,3.49219,9.75586,21.625,21.625,0,0,1-1.22461,7.12793,34.41567,34.41567,0,0,1-3.8877,7.55957q-2.08887,3.31347-7.7041,11.30468-.79248,1.15137-1.47559,2.123-.68555.97266-1.18847,1.76465a.235.235,0,0,0-.07227.28809.2893.2893,0,0,0,.28809.14355h15.4082a.86026.86026,0,0,1,.86426.86426v5.47168a.86028.86028,0,0,1-.86426.86426H375.75A.82976.82976,0,0,1,375.1377,508.22656Z"/>
    <path class="b" d="M410.88477,505.419a14.05649,14.05649,0,0,1-3.67188-10.11622V471.25488a14.05646,14.05646,0,0,1,3.67188-10.11621,12.81035,12.81035,0,0,1,9.7207-3.85254,13.01693,13.01693,0,0,1,9.82715,3.85254,13.97571,13.97571,0,0,1,3.708,10.11621v24.04785a13.97573,13.97573,0,0,1-3.708,10.11622,13.01268,13.01268,0,0,1-9.82715,3.85156A12.80614,12.80614,0,0,1,410.88477,505.419Zm13.5-5.11231a6.81736,6.81736,0,0,0,1.40429-4.5V470.751a6.81916,6.81916,0,0,0-1.40429-4.5,4.65612,4.65612,0,0,0-3.7793-1.69239,4.479,4.479,0,0,0-3.67285,1.69239,6.94208,6.94208,0,0,0-1.36719,4.5v25.05566a6.94024,6.94024,0,0,0,1.36719,4.5,4.47822,4.47822,0,0,0,3.67285,1.69141A4.65534,4.65534,0,0,0,424.38477,500.30664Z"/>
    <path class="b" d="M446.45312,458.07812h6.91211a.86027.86027,0,0,1,.86329.86426v48.67188a.86027.86027,0,0,1-.86329.86426h-6.624a.86028.86028,0,0,1-.86426-.86426v-41.1836a.3135.3135,0,0,0-.14453-.25195.25836.25836,0,0,0-.28711-.03613l-5.1123,1.51172a.79241.79241,0,0,1-.36035.07226q-.64746,0-.64746-.792v-4.752a1.01992,1.01992,0,0,1,.64746-1.00782l5.40039-2.80859A3.27789,3.27789,0,0,1,446.45312,458.07812Z"/>
    <path class="b" d="M486.77246,496.38281a12.22017,12.22017,0,0,1-3.56348,9.252,13.00146,13.00146,0,0,1-9.39648,3.41992,12.08117,12.08117,0,0,1-8.92773-3.45606,12.45458,12.45458,0,0,1-3.45606-9.21582V494.582a.86024.86024,0,0,1,.86426-.86328h6.624a.86023.86023,0,0,1,.86328.86328v1.36817a6.69586,6.69586,0,0,0,1.18848,4.06835,3.46079,3.46079,0,0,0,2.84375,1.62012,3.99185,3.99185,0,0,0,3.27637-1.584,6.39878,6.39878,0,0,0,1.25976-4.10449v-7.416a.29181.29181,0,0,0-.14355-.28809.23706.23706,0,0,0-.28809.07227,7.32147,7.32147,0,0,1-5.18457,1.94434,10.77151,10.77151,0,0,1-8.06347-3.168,13.46558,13.46558,0,0,1-3.60059-8.42383,33.62107,33.62107,0,0,1-.35938-5.04q0-1.65528.14356-4.68066a11.7238,11.7238,0,0,1,3.78027-8.46,13.24262,13.24262,0,0,1,9.03614-2.9873,13.01758,13.01758,0,0,1,8.63964,2.77148q3.31055,2.773,3.96,8.17188a21.08552,21.08552,0,0,1,.43262,4.53613Zm-8.42383-22.17676q0-2.15918-.21582-4.82324a6.66682,6.66682,0,0,0-1.47558-3.52832,3.76556,3.76556,0,0,0-2.916-1.22363,3.66056,3.66056,0,0,0-2.916,1.2959,7.16291,7.16291,0,0,0-1.47657,3.67187q-.21533,2.59131-.21582,4.60742a48.71459,48.71459,0,0,0,.36035,5.11231q.8628,4.17627,4.24805,4.17578a3.85321,3.85321,0,0,0,2.84375-1.11523,5.87671,5.87671,0,0,0,1.47559-3.27637A43.26717,43.26717,0,0,0,478.34863,474.20605Z"/>
  </g>
  <g class="aj">
    <path class="ak" d="M787.86424,93.42053l27.6-4.8-20.1-8.1-20.1-8.1-20.1-8.1-132.5,14.3,20.1,8.1-27.6,4.8,20.1,8.1.2.1-27.6,4.8,20.1,8.1,20.1,8.1,70.1,8.1,82.5-14.3-20.1-8.1-.2-.1,27.6-4.8Z"/>
    <g>
      <path class="b" d="M576.66422,484.32055a13.92406,13.92406,0,0,1-5.3-9.9l-.3-2.2a.84376.84376,0,0,1,.2-.7,2.09181,2.09181,0,0,1,.6-.4l7.1-.9a.84379.84379,0,0,1,.7.2,2.09183,2.09183,0,0,1,.4.6l.2,1.7a7.71674,7.71674,0,0,0,2.2,4.8,5.05986,5.05986,0,0,0,4.2,1.4,5.28963,5.28963,0,0,0,3.8-2.3,7.16478,7.16478,0,0,0,1-4.9,7.34514,7.34514,0,0,0-1.3-3.4,10.06963,10.06963,0,0,0-2.8-2.6c-1.1-.8-3-1.9-5.5-3.3a69.63269,69.63269,0,0,1-7-4.3,18.32983,18.32983,0,0,1-4.7-4.9,15.82218,15.82218,0,0,1-2.5-7.1c-.5-4.4.3-8,2.7-11,2.3-2.9,5.6-4.6,9.9-5.2a14.25829,14.25829,0,0,1,11.2,2.8c3,2.4,4.8,5.8,5.4,10.3l.2,1.9a.84376.84376,0,0,1-.2.7,2.09181,2.09181,0,0,1-.6.4l-7.2.9a.84376.84376,0,0,1-.7-.2,2.092,2.092,0,0,1-.4-.6l-.3-2.1a7.71664,7.71664,0,0,0-2.2-4.8,5.16089,5.16089,0,0,0-4.3-1.4,4.97521,4.97521,0,0,0-3.6,2.2,6.54679,6.54679,0,0,0-.9,4.9,7.17046,7.17046,0,0,0,2.2,4.6c1.2,1.2,3.6,2.7,7.1,4.7s6.2,3.7,8,5a18.36461,18.36461,0,0,1,4.4,4.4,16.675,16.675,0,0,1-.6,17.6,14.321,14.321,0,0,1-10.2,5.4A12.61045,12.61045,0,0,1,576.66422,484.32055Z"/>
      <path class="b" d="M623.86424,476.32052c-2.6-3.1-3.8-7-3.6-11.9l1.8-39.5a.90789.90789,0,0,1,.3-.7.61834.61834,0,0,1,.7-.2l7.4.3a.90785.90785,0,0,1,.7.3.61834.61834,0,0,1,.2.7l-1.8,40.4a8.2735,8.2735,0,0,0,1.4,5.3,5.16464,5.16464,0,0,0,4.1,2.2,4.92974,4.92974,0,0,0,4.3-1.8,8.26349,8.26349,0,0,0,1.8-5.1l1.8-40.4a.90788.90788,0,0,1,.3-.7.61836.61836,0,0,1,.7-.2l7.4.3a.90789.90789,0,0,1,.7.3.61835.61835,0,0,1,.2.7l-1.8,39.5c-.2,4.8-1.8,8.7-4.7,11.5a14.3456,14.3456,0,0,1-11.1,3.9A14.49684,14.49684,0,0,1,623.86424,476.32052Z"/>
    </g>
  </g>
  <g>
    <path class="al" d="M376.43208,154.931c4.6-14.3,22.2-22.5,39.7-18.3,17.5,4.1,28.7,19,25.4,33.6-3.4,14.8-23.1,23.3-37.8,20.8-17.8-3-30.2-17.2-28.2-32.1"/>
    <path class="am" d="M403.13209,159.431a4.70891,4.70891,0,0,1,.5-2.4,6.54914,6.54914,0,0,1,1.5-1.8,7.56053,7.56053,0,0,1,2.2-1.1,6.90434,6.90434,0,0,1,2.5-.4,10.67913,10.67913,0,0,1,2.5.3,6.7547,6.7547,0,0,1,3.9,2.7,4.81482,4.81482,0,0,1,.7,2.4l.4,12a5.09686,5.09686,0,0,1-.5,2.5,6.54889,6.54889,0,0,1-1.5,1.8,7.56054,7.56054,0,0,1-2.2,1.1,6.90451,6.90451,0,0,1-2.5.4,10.67971,10.67971,0,0,1-2.5-.3,5.53532,5.53532,0,0,1-2.2-1,4.36329,4.36329,0,0,1-1.6-1.7,4.81482,4.81482,0,0,1-.7-2.4Zm4.3,11.9a1.90618,1.90618,0,0,0,1.1,1.7,3.32314,3.32314,0,0,0,2,.5,3.077,3.077,0,0,0,1.9-.6,2.19714,2.19714,0,0,0,.8-1.8l-.4-12a1.94117,1.94117,0,0,0-.9-1.7,3.37889,3.37889,0,0,0-2-.6,3.15714,3.15714,0,0,0-1.9.7,2.019,2.019,0,0,0-.9,1.8Z"/>
    <polygon class="am" points="386.832 177.431 390.332 177.331 389.932 167.531 396.232 167.431 396.632 177.131 400.332 177.031 399.532 153.931 395.832 154.031 396.132 163.731 389.832 163.931 389.532 154.231 386.032 154.231 386.832 177.431"/>
    <polygon class="am" points="419.232 153.431 419.332 156.831 424.432 156.731 425.032 176.431 428.632 176.331 428.032 156.631 433.032 156.531 432.932 153.131 419.232 153.431"/>
    <path class="am" d="M465.53209,174.131l31.4-.8-19.5-20-19.4-20-19.4-19.9-94,2.3,19.4,20-31.5.8,19.4,20,.1.1-31.5.8,19.5,20,19.4,20,19.4,19.9,94-2.3-19.4-19.9-.1-.2,31.5-.8Zm-55.6,25.2c-21,.5-38.5-14.3-39.2-33-.7-18.8,15.8-34.4,36.8-34.9s38.5,14.3,39.2,33C447.43208,183.231,430.93208,198.831,409.93208,199.331Z"/>
  </g>
</svg>
